<?xml version="1.0" encoding="UTF-8"?>
<svg id="_レイヤー_1" data-name="レイヤー 1" xmlns="http://www.w3.org/2000/svg" viewBox="0 0 300 300">
  <defs>
    <style>
      .cls-1 {
        fill: #ec6a16;
      }
    </style>
  </defs>
  <path class="cls-1" d="M132.24,193.61c0,30.14-29.91,45.56-31.08,46.26-.7.23-1.17.23-1.87.23l-79.3-4.44c-1.4,0-2.57-.93-3.04-2.1-.47-1.4-.23-2.8.7-3.74,0-.23,16.36-18.69,17.76-43.69.7-10.28-3.96-31-8.63-39.88-5.61-10.52-11.28-30.28-10.57-44.76,1.4-28.51,36.68-40.89,38.32-41.36.23,0,.7-.23,1.17-.23l67.86,5.37c1.17.23,2.34.93,2.8,2.1.7,1.17.47,2.57-.23,3.5-.23.23-13.79,18.69-13.79,36.68,0,10.75,4.5,28.17,8.94,37.29,5.37,10.28,10.97,33.34,10.97,48.76Z"/>
  <path class="cls-1" d="M282.73,174.91c-1.87,32.95-6.31,58.88-6.31,59.12-.47,1.64-1.87,2.8-3.51,2.8h-32.95c-.93,0-1.87-.47-2.57-.93-.47-.7-.94-1.64-.94-2.57l1.4-33.18.23-3.97c.23-4.91.23-10.05.23-14.95,0-7.48-.22-26.33-1.39-29.83-2.34-6.54-5.55-6.08-9.29-6.08.47,10.05.69,32.64.69,42.21v7.48c-.47,21.26-1.87,40.19-1.87,40.19-.23,1.87-1.64,3.27-3.51,3.27h-24.33c-.94,0-1.87-.48-2.57-.94-.7-.7-.93-1.64-.93-2.57l.23-32.95v-7.94c0-14.25,1.09-40.15-.92-45.2-1.19-2.98-4.72-4.14-9.36-3.78-.23,5.84-.25,23.99-.25,29.6v60.28c0,.93-.23,1.87-.93,2.57s-1.64.93-2.57.93h-36.05c-1.64,0-3.27-1.4-3.5-3.03,0-.23-3.26-41.98-5.13-84.74-1.64-38.32-1.23-78.88-1.23-79.34.23-1.64,1.4-3.27,3.27-3.27.47-.23,16.91-3.98,53.82-3.75,46.96.23,63.35,2.81,76.9,15.9,17.29,16.59,14.94,65.48,13.31,94.69Z"/>
</svg>